<?xml version="1.0" standalone="no"?>
<!DOCTYPE svg PUBLIC "-//W3C//DTD SVG 20010904//EN"
 "http://www.w3.org/TR/2001/REC-SVG-20010904/DTD/svg10.dtd">
<svg version="1.0" xmlns="http://www.w3.org/2000/svg"
 width="500.000000pt" height="500.000000pt" viewBox="0 0 500.000000 500.000000"
 preserveAspectRatio="xMidYMid meet">

<g transform="translate(0.000000,500.000000) scale(0.100000,-0.100000)"
fill="#000000" stroke="none">
<path d="M0 2500 l0 -2500 2500 0 2500 0 0 2500 0 2500 -2500 0 -2500 0 0
-2500z m920 239 c0 -50 4 -89 9 -87 4 2 66 43 137 91 l129 88 105 -3 104 -3
-137 -93 c-75 -51 -137 -96 -137 -101 0 -4 61 -50 135 -101 l134 -95 -105 -3
-105 -3 -85 66 -86 66 -49 -32 c-43 -27 -49 -35 -49 -65 l0 -34 -85 0 -85 0 0
193 c0 107 3 197 7 200 3 4 42 7 85 7 l78 0 0 -91z m670 -59 l0 -150 150 0
150 0 0 -50 0 -50 -230 0 -230 0 0 200 0 200 80 0 80 0 0 -150z m498 -52 l2
-198 -85 0 -85 0 0 200 0 201 83 -3 82 -3 3 -197z m512 152 l0 -50 -75 0 -75
0 0 -150 0 -150 -85 0 -85 0 0 150 0 150 -80 0 -80 0 0 43 c0 24 3 47 7 50 3
4 111 7 240 7 l233 0 0 -50z m470 -3 l0 -52 -125 -95 -125 -95 125 -3 125 -3
0 -49 0 -50 -230 0 -230 0 0 48 0 47 132 100 131 100 -131 3 -132 3 0 43 c0
23 3 46 7 49 3 4 107 7 230 7 l223 0 0 -53z m210 -37 c0 -49 3 -90 6 -90 3 0
65 41 137 90 l132 91 105 -3 105 -3 -137 -94 c-76 -52 -138 -97 -138 -100 1
-3 62 -49 136 -101 l135 -95 -106 -3 -106 -3 -84 66 -84 66 -50 -33 c-44 -28
-51 -38 -51 -65 l0 -33 -80 0 -80 0 0 200 0 200 80 0 80 0 0 -90z m968 38 l3
-48 -145 0 -146 0 0 -30 0 -30 120 0 120 0 0 -40 0 -40 -120 0 -120 0 0 -30 0
-30 155 0 155 0 0 -50 0 -50 -240 0 -240 0 0 200 0 200 228 -2 227 -3 3 -47z
m-2510 -473 c32 -9 15 -28 -20 -21 -34 7 -68 -8 -68 -29 0 -8 22 -26 49 -39
48 -25 61 -41 61 -77 0 -47 -78 -77 -131 -49 -35 19 -21 31 29 24 37 -5 51 -2
61 10 20 23 7 43 -44 68 -25 12 -48 30 -51 41 -10 32 4 65 33 75 28 10 37 10
81 -3z m250 -11 c32 -21 55 -79 47 -120 -8 -47 -65 -94 -113 -94 -46 0 -99 31
-112 66 -44 115 76 215 178 148z m936 -88 c26 -60 46 -113 46 -117 0 -22 -33
-6 -43 21 -10 27 -15 30 -57 30 -42 0 -47 -3 -57 -30 -6 -16 -18 -30 -27 -30
-9 0 -16 2 -16 4 0 2 16 42 36 88 19 45 42 98 50 117 8 19 16 32 19 30 2 -3
24 -54 49 -113z m-696 92 c-3 -8 -26 -14 -56 -16 -52 -3 -52 -3 -52 -38 0 -34
0 -34 45 -34 33 0 45 -4 45 -15 0 -11 -12 -15 -45 -15 l-45 0 0 -50 c0 -38 -4
-50 -15 -50 -12 0 -15 19 -15 115 l0 115 71 0 c52 0 70 -3 67 -12z m190 0 c-3
-7 -19 -14 -36 -16 l-32 -3 0 -100 c0 -81 -3 -99 -15 -99 -12 0 -15 18 -15 99
l0 100 -27 3 c-14 2 -28 9 -31 16 -3 9 17 12 78 12 61 0 81 -3 78 -12z m92
-55 c12 -38 26 -72 30 -76 4 -5 15 12 25 37 14 35 15 51 7 75 -9 26 -8 31 4
31 8 0 23 -21 34 -47 11 -27 26 -61 33 -77 l13 -29 28 76 c17 46 34 77 42 77
8 0 14 -4 14 -10 0 -23 -83 -221 -90 -213 -4 4 -15 30 -25 56 -10 26 -21 49
-24 52 -4 2 -17 -23 -30 -56 -13 -32 -27 -59 -30 -59 -5 0 -34 72 -88 218 -3
7 3 12 14 12 15 0 25 -16 43 -67z m628 51 c27 -18 30 -69 6 -102 -15 -22 -14
-26 10 -62 31 -47 31 -50 9 -50 -10 0 -31 20 -47 46 -36 57 -60 56 -64 -4 -2
-28 -8 -42 -18 -42 -11 0 -14 21 -14 115 l0 115 48 0 c27 0 57 -7 70 -16z
m250 4 c-3 -8 -28 -14 -66 -16 -53 -3 -62 -6 -62 -22 0 -41 11 -50 61 -50 37
0 49 -4 49 -15 0 -12 -13 -15 -56 -15 l-55 0 3 -32 c3 -33 3 -33 66 -36 46 -2
62 -7 62 -17 0 -12 -17 -15 -80 -15 l-80 0 0 115 0 115 81 0 c60 0 80 -3 77
-12z"/>
<path d="M1877 2274 c-53 -29 -61 -91 -18 -135 38 -37 82 -39 116 -4 70 69
-13 186 -98 139z"/>
<path d="M2857 2223 c-2 -10 -8 -26 -12 -35 -6 -15 -2 -18 24 -18 17 0 31 2
31 4 0 1 -5 17 -11 35 -12 35 -24 40 -32 14z"/>
<path d="M3050 2240 c0 -40 1 -41 31 -38 39 4 59 30 43 56 -6 9 -25 18 -43 20
-30 3 -31 2 -31 -38z"/>
</g>
</svg>
